<?xml version="1.0" standalone="no"?>
<!DOCTYPE svg PUBLIC "-//W3C//DTD SVG 20010904//EN"
 "http://www.w3.org/TR/2001/REC-SVG-20010904/DTD/svg10.dtd">
<svg version="1.0" xmlns="http://www.w3.org/2000/svg"
 width="771.000000pt" height="771.000000pt" viewBox="0 0 771.000000 771.000000"
 preserveAspectRatio="xMidYMid meet">
<metadata>
Created by potrace 1.14, written by Peter Selinger 2001-2017
</metadata>
<g transform="translate(0.000000,771.000000) scale(0.100000,-0.100000)"
fill="#000000" stroke="none">
<path d="M3826 7702 c-3 -3 -6 -14 -6 -24 0 -18 -27 -18 -796 -18 -658 1 -801
3 -823 15 -19 9 -64 14 -147 14 -105 0 -117 -2 -100 -15 18 -12 9 -14 -80 -15
-445 -3 -566 -17 -799 -93 -108 -35 -258 -114 -312 -163 -13 -13 -25 -23 -27
-23 -1 0 -24 -20 -50 -45 -27 -25 -67 -55 -90 -68 -23 -12 -45 -32 -51 -44 -5
-12 -20 -28 -34 -35 -56 -30 -168 -167 -224 -276 -118 -229 -151 -340 -162
-554 -3 -62 -8 -151 -10 -198 -3 -47 -8 -660 -11 -1362 l-7 -1278 27 0 26 0 0
-154 c0 -104 -4 -157 -11 -162 -8 -5 -9 -52 -5 -164 6 -141 5 -158 -9 -164
-15 -6 -17 -53 -13 -570 3 -517 4 -565 20 -583 18 -19 21 -46 33 -244 4 -76
24 -234 40 -324 10 -57 47 -171 87 -267 36 -90 38 -101 27 -132 -11 -30 -10
-38 13 -77 76 -129 325 -389 435 -455 89 -53 73 -47 413 -144 133 -38 194 -41
1435 -55 231 -3 578 -8 770 -12 193 -4 384 -7 425 -7 1788 14 2319 22 2530 39
75 7 270 55 337 85 25 11 54 20 64 20 11 0 19 4 19 9 0 5 14 14 30 21 46 19
80 49 80 70 0 21 7 30 76 85 63 52 112 104 120 128 4 11 11 16 21 13 10 -4 33
10 62 37 26 24 59 52 74 61 15 10 27 25 27 32 0 8 9 14 19 14 11 0 23 5 26 10
4 6 16 8 28 4 22 -6 22 -6 -2 19 l-24 26 26 31 c15 17 31 45 36 63 10 33 50
144 94 258 27 69 52 213 63 359 3 47 8 101 10 120 3 30 3 736 1 2080 -1 212 3
455 8 540 4 85 9 173 10 195 2 22 3 244 4 493 l1 452 28 0 c27 0 28 0 26 63
-2 34 -5 278 -9 542 -3 263 -10 484 -14 490 -4 5 -8 28 -9 50 -4 71 -13 116
-47 235 -92 319 -233 521 -507 726 -165 123 -322 191 -563 244 -144 31 -262
36 -1000 39 -363 1 -804 4 -980 6 -176 2 -361 4 -411 5 -75 0 -95 3 -113 19
-16 14 -37 20 -71 19 -27 0 -51 -2 -54 -6z m-6 -102 c0 -11 -4 -20 -10 -20 -5
0 -10 9 -10 20 0 11 5 20 10 20 6 0 10 -9 10 -20z m160 -45 c1 -11 2 -31 1
-45 -2 -24 -2 -24 -16 -6 -9 12 -15 41 -15 70 1 49 1 50 14 26 8 -14 15 -34
16 -45z"/>
<path d="M113 3140 c0 -25 2 -35 4 -22 2 12 2 32 0 45 -2 12 -4 2 -4 -23z"/>
<path d="M112 2990 c0 -19 2 -27 5 -17 2 9 2 25 0 35 -3 9 -5 1 -5 -18z"/>
</g>
</svg>
